<svg width="435" height="106" viewBox="0 0 435 106" fill="none" xmlns="http://www.w3.org/2000/svg">
<path d="M110.87 8.66885e-08H10.1307C4.5446 8.66885e-08 0 4.55231 0 10.1474V65.6022C0 71.1977 4.5446 75.7501 10.1307 75.7501H44.3986L40.9572 86.0911C37.702 86.9361 35.2919 89.9032 35.2919 93.4241V95.9499H27.7291C26.3372 95.9499 25.2082 97.0807 25.2082 98.4749C25.2082 99.8692 26.3372 101 27.7291 101H39.235H39.2355H81.7654H93.2716C94.6635 101 95.7925 99.8692 95.7925 98.4749C95.7925 97.0807 94.6635 95.9499 93.2716 95.9499H85.7091V93.4241C85.7091 89.9034 83.298 86.9364 80.0431 86.0911L76.6021 75.7501H110.87C116.456 75.7501 121 71.198 121 65.6022V10.1474C121 4.55231 116.456 8.66885e-08 110.87 8.66885e-08ZM78.1461 90.8993C79.5364 90.8993 80.6675 92.0317 80.6675 93.4241V95.9499H40.3337V93.4241C40.3337 92.0317 41.4643 90.8993 42.8544 90.8993H78.1461ZM46.3518 85.8494L49.7129 75.7501H71.2873L74.6484 85.8494H46.3518ZM115.959 65.6022C115.959 68.413 113.676 70.6999 110.87 70.6999H73.1047H47.8962H10.1309C7.325 70.6999 5.04183 68.413 5.04183 65.6022V63.125H100.802C102.194 63.125 103.323 61.9942 103.323 60.5999C103.323 59.2056 102.195 58.0748 100.802 58.0748H5.04183V10.1474C5.04183 7.33658 7.325 5.04989 10.1309 5.04989H110.87C113.66 5.04989 115.93 7.31078 115.956 10.0993H20.6017C19.2097 10.0993 18.0808 11.2301 18.0808 12.6244C18.0808 14.0189 19.2097 15.1494 20.6017 15.1494H115.959V65.6022V65.6022Z" transform="translate(314 5)" fill="white"/>
<path d="M2.303 20.4498H2.30537C2.49963 21.5685 3.43549 22.4522 4.61666 22.5313L23.8387 23.8124L23.8392 23.8072C25.1557 23.8969 26.3296 22.9422 26.4974 21.6135L28.1108 8.8632L28.5943 5.03997L31.9483 5.05654C33.3341 5.06151 34.4631 3.93947 34.468 2.55136C34.4739 1.16301 33.3542 0.0317421 31.9677 0.026771L26.3929 2.04097e-05C25.1099 -0.00518737 24.0478 0.955412 23.8923 2.19984L23.1288 8.23187L21.8136 18.6264L6.91898 17.6329L5.52795 9.81741H15.5376C16.9299 9.81741 18.0588 8.68708 18.0588 7.29281C18.0588 5.89784 16.9299 4.76728 15.5376 4.76728H2.51995V4.76941C2.37674 4.76941 2.23211 4.78171 2.08629 4.80633C0.715822 5.04589 -0.200896 6.35399 0.0377955 7.72624L2.303 20.4498Z" transform="translate(357.262 26.0034)" fill="white"/>
<path d="M2.52068 5.77924e-07C1.13249 5.77924e-07 -1.1251e-06 1.13435 -1.1251e-06 2.52459C-1.1251e-06 3.91554 1.13249 5.0499 2.52068 5.0499C3.90887 5.0499 5.04136 3.91554 5.04136 2.52459C5.04112 1.13411 3.90887 5.77924e-07 2.52068 5.77924e-07Z" transform="translate(363.326 52.1716)" fill="white"/>
<path d="M2.52068 5.77924e-07C1.13249 5.77924e-07 -1.38474e-06 1.13435 -1.38474e-06 2.52459C-1.38474e-06 3.91554 1.13249 5.0499 2.52068 5.0499C3.90888 5.0499 5.04089 3.91554 5.04089 2.52459C5.04089 1.13411 3.90888 5.77924e-07 2.52068 5.77924e-07Z" transform="translate(376.177 52.1716)" fill="white"/>
<path d="M3.65317 3.0341e-07H2.52092C1.12894 3.0341e-07 -7.21218e-09 1.1308 -7.21218e-09 2.52507C-7.21218e-09 3.91957 1.12894 5.05013 2.52092 5.05013H3.65317C5.04514 5.05013 6.17408 3.9198 6.17408 2.52507C6.17408 1.13056 5.04538 3.0341e-07 3.65317 3.0341e-07Z" transform="translate(323.218 15.0996)" fill="white"/>
<path d="M2.52092 5.05013H3.587C4.97897 5.05013 6.10791 3.91933 6.10791 2.52506C6.10791 1.1308 4.97897 0 3.587 0H2.52092C1.12894 0 -1.73092e-07 1.1308 -1.73092e-07 2.52506C-1.73092e-07 3.91957 1.12894 5.05013 2.52092 5.05013Z" transform="translate(419.56 63.075)" fill="white"/>
<path d="M4.32 39.11C4.32 36.83 5.07 34.91 6.57 33.35C8.13 31.79 10.17 31.01 12.69 31.01C15.21 31.01 17.22 31.79 18.72 33.35C20.28 34.91 21.06 36.83 21.06 39.11C21.06 41.39 20.28 43.31 18.72 44.87C17.22 46.43 15.21 47.21 12.69 47.21C10.17 47.21 8.13 46.43 6.57 44.87C5.07 43.31 4.32 41.39 4.32 39.11ZM20.34 94.91C19.68 95.03 18.69 95.18 17.37 95.36C16.11 95.6 14.82 95.72 13.5 95.72C12.18 95.72 10.98 95.63 9.9 95.45C8.88 95.27 8.01 94.91 7.29 94.37C6.57 93.83 6 93.11 5.58 92.21C5.22 91.25 5.04 90.02 5.04 88.52V51.89C5.7 51.77 6.66 51.62 7.92 51.44C9.24 51.2 10.56 51.08 11.88 51.08C13.2 51.08 14.37 51.17 15.39 51.35C16.47 51.53 17.37 51.89 18.09 52.43C18.81 52.97 19.35 53.72 19.71 54.68C20.13 55.58 20.34 56.78 20.34 58.28V94.91ZM33.9504 95C33.3171 95 32.7787 94.81 32.3354 94.43C31.9554 93.9867 31.7654 93.4483 31.7654 92.815V85.975C31.7654 85.3417 31.9554 84.835 32.3354 84.455C32.7787 84.0117 33.3171 83.79 33.9504 83.79H40.7904C41.4237 83.79 41.9621 84.0117 42.4054 84.455C42.8487 84.835 43.0704 85.3417 43.0704 85.975V92.815C43.0704 93.4483 42.8487 93.9867 42.4054 94.43C41.9621 94.81 41.4237 95 40.7904 95H33.9504ZM83.0721 95C82.4387 95 81.9004 94.81 81.4571 94.43C81.0771 93.9867 80.8871 93.4483 80.8871 92.815V30.78C80.8871 30.0833 81.0771 29.545 81.4571 29.165C81.9004 28.7217 82.4387 28.5 83.0721 28.5H87.4421C88.5821 28.5 89.3737 28.9433 89.8171 29.83L121.357 78.28V30.78C121.357 30.0833 121.547 29.545 121.927 29.165C122.37 28.7217 122.909 28.5 123.542 28.5H128.102C128.799 28.5 129.337 28.7217 129.717 29.165C130.16 29.545 130.382 30.0833 130.382 30.78V92.72C130.382 93.3533 130.16 93.8917 129.717 94.335C129.337 94.7783 128.83 95 128.197 95H123.637C122.687 95 121.927 94.5567 121.357 93.67L89.9121 45.695V92.815C89.9121 93.4483 89.6904 93.9867 89.2471 94.43C88.8037 94.81 88.2654 95 87.6321 95H83.0721ZM222.047 95C212.041 95 207.037 89.4267 207.037 78.28V53.2H199.627C198.994 53.2 198.456 53.01 198.012 52.63C197.632 52.1867 197.442 51.6483 197.442 51.015V47.785C197.442 47.1517 197.632 46.645 198.012 46.265C198.456 45.8217 198.994 45.6 199.627 45.6H207.037V29.735C207.037 29.1017 207.227 28.595 207.607 28.215C208.051 27.7717 208.589 27.55 209.222 27.55H213.687C214.321 27.55 214.827 27.7717 215.207 28.215C215.651 28.595 215.872 29.1017 215.872 29.735V45.6H227.652C228.286 45.6 228.792 45.8217 229.172 46.265C229.616 46.645 229.837 47.1517 229.837 47.785V51.015C229.837 51.6483 229.616 52.1867 229.172 52.63C228.792 53.01 228.286 53.2 227.652 53.2H215.872V77.615C215.872 80.7817 216.411 83.1883 217.487 84.835C218.564 86.4183 220.337 87.21 222.807 87.21H228.602C229.236 87.21 229.742 87.4317 230.122 87.875C230.566 88.255 230.787 88.7617 230.787 89.395V92.815C230.787 93.4483 230.566 93.9867 230.122 94.43C229.742 94.81 229.236 95 228.602 95H222.047Z" fill="white"/>
<path d="M188.079 74.9609H155.376V85.8618H188.079V95H155.376C154.139 95 152.964 94.7681 151.851 94.3042C150.737 93.8094 149.763 93.16 148.928 92.356C148.124 91.521 147.475 90.5469 146.98 89.4336C146.516 88.3203 146.284 87.1297 146.284 85.8618V54.7363C146.284 53.4684 146.516 52.2778 146.98 51.1646C147.475 50.0513 148.124 49.0926 148.928 48.2886C149.763 47.4536 150.737 46.8042 151.851 46.3403C152.964 45.8455 154.139 45.5981 155.376 45.5981H178.94C180.208 45.5981 181.399 45.8455 182.512 46.3403C183.625 46.8042 184.584 47.4536 185.388 48.2886C186.223 49.0926 186.873 50.0513 187.336 51.1646C187.831 52.2778 188.079 53.4684 188.079 54.7363V74.9609ZM155.376 54.7363V65.8228H178.94V54.7363H155.376Z" fill="#910000"/>
</svg>
