<svg width="269" height="90" viewBox="0 0 269 90" version="1.1" xmlns="http://www.w3.org/2000/svg" xmlns:xlink="http://www.w3.org/1999/xlink">
<title>Group</title>
<desc>Created using Figma</desc>
<g id="Canvas" transform="translate(-2807 -722)">
<g id="Group">
<g id="Rectangle">
<use xlink:href="#path0_fill" transform="translate(2807 743)" fill="#0F4392"/>
</g>
<g id="Component">
<g id="N T">
<use xlink:href="#path1_fill" transform="translate(2863 722)" fill="#0F4392"/>
</g>
<g id="Rectangle">
<use xlink:href="#path2_fill" transform="matrix(-3.27143e-16 -1 1 -4.6155e-16 2941 782)" fill="#0F4392"/>
</g>
<g id="Rectangle">
<use xlink:href="#path2_fill" transform="matrix(-3.27143e-16 -1 1 -4.6155e-16 2941 752)" fill="#0F4392"/>
</g>
<g id="Rectangle">
<use xlink:href="#path2_fill" transform="matrix(-3.27143e-16 -1 1 -4.6155e-16 2941 812)" fill="#0F4392"/>
</g>
<g id="Ellipse">
<use xlink:href="#path3_fill" transform="translate(2821 801)" fill="#0F4392"/>
</g>
</g>
</g>
</g>
<defs>
<path id="path0_fill" d="M 0 4C 0 1.79086 1.79086 0 4 0C 6.20914 0 8 1.79086 8 4L 8 65C 8 67.2091 6.20914 69 4 69C 1.79086 69 0 67.2091 0 65L 0 4Z"/>
<path id="path1_fill" d="M 10.45 89C 9.81667 89 9.27833 88.81 8.835 88.43C 8.455 87.9867 8.265 87.4483 8.265 86.815L 8.265 24.78C 8.265 24.0833 8.455 23.545 8.835 23.165C 9.27833 22.7217 9.81667 22.5 10.45 22.5L 14.82 22.5C 15.96 22.5 16.7517 22.9433 17.195 23.83L 48.735 72.28L 48.735 24.78C 48.735 24.0833 48.925 23.545 49.305 23.165C 49.7483 22.7217 50.2867 22.5 50.92 22.5L 55.48 22.5C 56.1767 22.5 56.715 22.7217 57.095 23.165C 57.5383 23.545 57.76 24.0833 57.76 24.78L 57.76 86.72C 57.76 87.3533 57.5383 87.8917 57.095 88.335C 56.715 88.7783 56.2083 89 55.575 89L 51.015 89C 50.065 89 49.305 88.5567 48.735 87.67L 17.29 39.695L 17.29 86.815C 17.29 87.4483 17.0683 87.9867 16.625 88.43C 16.1817 88.81 15.6433 89 15.01 89L 10.45 89ZM 181.772 89C 181.139 89 180.6 88.81 180.157 88.43C 179.777 87.9867 179.587 87.4483 179.587 86.815L 179.587 30.955L 161.347 30.955C 160.714 30.955 160.175 30.765 159.732 30.385C 159.352 29.9417 159.162 29.4033 159.162 28.77L 159.162 24.78C 159.162 24.1467 159.352 23.6083 159.732 23.165C 160.175 22.7217 160.714 22.5 161.347 22.5L 207.137 22.5C 207.834 22.5 208.372 22.7217 208.752 23.165C 209.195 23.545 209.417 24.0833 209.417 24.78L 209.417 28.77C 209.417 29.4033 209.195 29.9417 208.752 30.385C 208.309 30.765 207.77 30.955 207.137 30.955L 188.992 30.955L 188.992 86.815C 188.992 87.4483 188.77 87.9867 188.327 88.43C 187.884 88.81 187.345 89 186.712 89L 181.772 89Z"/>
<path id="path2_fill" d="M 0 4C 0 1.79086 1.79086 0 4 0C 6.20914 0 8 1.79086 8 4L 8 60C 8 62.2091 6.20914 64 4 64C 1.79086 64 0 62.2091 0 60L 0 4Z"/>
<path id="path3_fill" d="M 11 5.5C 11 8.53757 8.53757 11 5.5 11C 2.46243 11 0 8.53757 0 5.5C 0 2.46243 2.46243 0 5.5 0C 8.53757 0 11 2.46243 11 5.5Z"/>
</defs>
</svg>
